<svg xmlns="http://www.w3.org/2000/svg" viewBox="8 4 48 58">
  <path d="M12 14C12 8 18 6 24 7c4 .6 6 2 8 2s4-1.4 8-2c6-1 12 1 12 7v22c0 14-9 22-20 22S12 50 12 36Z" transform="translate(0 3)" fill="#e03c60"/>
  <path d="M12 14C12 8 18 6 24 7c4 .6 6 2 8 2s4-1.4 8-2c6-1 12 1 12 7v22c0 14-9 22-20 22S12 50 12 36Z" fill="#ff5a7a"/>
  <path d="M32 12v8" fill="none" stroke="#e03c60" stroke-width="2.2" stroke-linecap="round" opacity=".5"/>
  <ellipse cx="18.5" cy="36" rx="3.4" ry="2.2" fill="#ffb8c7"/>
  <ellipse cx="45.5" cy="36" rx="3.4" ry="2.2" fill="#ffb8c7"/>
  <circle cx="24" cy="28" r="4" fill="#3b2230"/>
  <circle cx="40" cy="28" r="4" fill="#3b2230"/>
  <circle cx="25.3" cy="26.6" r="1.3" fill="#fff"/>
  <circle cx="41.3" cy="26.6" r="1.3" fill="#fff"/>
  <path d="M27 38q5 5 10 0" fill="none" stroke="#3b2230" stroke-width="2.6" stroke-linecap="round"/>
</svg>
